# MagicaVoxel @ Ephtracy

# group
o 

# material
mtllib beer-0.mtl
usemtl palette

# normals
vn -1 0 0
vn 1 0 0
vn 0 0 1
vn 0 0 -1
vn 0 -1 0
vn 0 1 0

# texcoords
vt 0.947266 0.5
vt 0.974609 0.5

# verts
v -1.8 0.1 1.2
v -1.8 0.1 0.7
v -1.8 1.1 1.2
v -1.8 1.1 0.7
v -1.8 1.8 1.2
v -1.8 1.8 0.7
v -1.7 0.1 1.4
v -1.7 0.1 1.2
v -1.7 0.1 0.7
v -1.7 0.1 0.5
v -1.7 1.1 1.4
v -1.7 1.1 1.2
v -1.7 1.1 0.7
v -1.7 1.1 0.5
v -1.7 1.8 1.4
v -1.7 1.8 1.2
v -1.7 1.8 0.7
v -1.7 1.8 0.5
v -1.6 0.1 1.5
v -1.6 0.1 1.4
v -1.6 0.1 0.5
v -1.6 0.1 0.4
v -1.6 1.1 1.5
v -1.6 1.1 1.4
v -1.6 1.1 0.5
v -1.6 1.1 0.4
v -1.6 1.8 1.5
v -1.6 1.8 1.4
v -1.6 1.8 0.5
v -1.6 1.8 0.4
v -1.5 0.1 1.6
v -1.5 0.1 1.5
v -1.5 0.1 0.4
v -1.5 0.1 0.3
v -1.5 1.1 1.6
v -1.5 1.1 1.5
v -1.5 1.1 0.4
v -1.5 1.1 0.3
v -1.5 1.8 1.6
v -1.5 1.8 1.5
v -1.5 1.8 0.4
v -1.5 1.8 0.3
v -1.4 0 1.1
v -1.4 0 0.8
v -1.4 0.1 1.1
v -1.4 0.1 0.8
v -1.3 0 1.2
v -1.3 0 1.1
v -1.3 0 0.8
v -1.3 0 0.7
v -1.3 0.1 1.7
v -1.3 0.1 1.6
v -1.3 0.1 1.2
v -1.3 0.1 1.1
v -1.3 0.1 0.8
v -1.3 0.1 0.7
v -1.3 0.1 0.3
v -1.3 0.1 0.2
v -1.3 1.1 1.7
v -1.3 1.1 1.6
v -1.3 1.1 0.3
v -1.3 1.1 0.2
v -1.3 1.8 1.7
v -1.3 1.8 1.6
v -1.3 1.8 0.3
v -1.3 1.8 0.2
v -1.2 0 1.3
v -1.2 0 1.2
v -1.2 0 0.7
v -1.2 0 0.6
v -1.2 0.1 1.3
v -1.2 0.1 1.2
v -1.2 0.1 0.7
v -1.2 0.1 0.6
v -1 1.7 1.6
v -1 1.7 1.5
v -1 1.8 1.6
v -1 1.8 1.5
v -0.7 1.6 1.4
v -0.7 1.6 1.3
v -0.7 1.6 0.6
v -0.7 1.6 0.5
v -0.7 1.7 1.5
v -0.7 1.7 1.4
v -0.7 1.7 1.3
v -0.7 1.7 0.6
v -0.7 1.7 0.5
v -0.7 1.8 1.5
v -0.7 1.8 1.4
v -0.6 1.6 1.3
v -0.6 1.6 1.2
v -0.6 1.6 0.7
v -0.6 1.6 0.6
v -0.6 1.7 1.4
v -0.6 1.7 1.3
v -0.6 1.7 1.2
v -0.6 1.7 0.7
v -0.6 1.7 0.6
v -0.6 1.7 0.4
v -0.6 1.8 1.4
v -0.6 1.8 1.3
v -0.6 1.8 0.6
v -0.6 1.8 0.4
v -0.5 1.6 1.2
v -0.5 1.6 0.7
v -0.5 1.7 1.3
v -0.5 1.7 1.2
v -0.5 1.7 1
v -0.5 1.7 0.7
v -0.5 1.7 0.6
v -0.5 1.8 1.3
v -0.5 1.8 1
v -0.5 1.8 0.7
v -0.5 1.8 0.6
v -0.4 1.7 1
v -0.4 1.7 0.7
v -0.4 1.8 1
v -0.4 1.8 0.7
v -1.7 1.7 1.1
v -1.7 1.7 1
v -1.7 1.8 1.1
v -1.7 1.8 1
v -1.6 1.7 1.4
v -1.6 1.7 1.1
v -1.6 1.7 1
v -1.6 1.7 0.6
v -1.6 1.8 1.4
v -1.6 1.8 1.1
v -1.6 1.8 1
v -1.6 1.8 0.6
v -1.5 1.7 0.6
v -1.5 1.7 0.5
v -1.5 1.8 0.6
v -1.5 1.8 0.5
v -1.4 1.6 1.2
v -1.4 1.6 0.7
v -1.4 1.7 1.5
v -1.4 1.7 1.4
v -1.4 1.7 1.2
v -1.4 1.7 0.7
v -1.4 1.7 0.5
v -1.4 1.7 0.4
v -1.4 1.8 1.5
v -1.4 1.8 1.4
v -1.4 1.8 0.5
v -1.4 1.8 0.4
v -1.3 1.6 1.3
v -1.3 1.6 1.2
v -1.3 1.6 0.7
v -1.3 1.6 0.6
v -1.3 1.7 1.3
v -1.3 1.7 1.2
v -1.3 1.7 0.7
v -1.3 1.7 0.6
v -1.2 1.6 1.4
v -1.2 1.6 1.3
v -1.2 1.6 0.6
v -1.2 1.6 0.5
v -1.2 1.7 1.4
v -1.2 1.7 1.3
v -1.2 1.7 0.6
v -1.2 1.7 0.5
v -1.1 1.7 1.6
v -1.1 1.7 1.5
v -1.1 1.8 1.6
v -1.1 1.8 1.5
v -0.9 0 1.3
v -0.9 0 1.2
v -0.9 0 0.7
v -0.9 0 0.6
v -0.9 0.1 1.3
v -0.9 0.1 1.2
v -0.9 0.1 0.7
v -0.9 0.1 0.6
v -0.8 0 1.2
v -0.8 0 1.1
v -0.8 0 0.8
v -0.8 0 0.7
v -0.8 0.1 1.7
v -0.8 0.1 1.6
v -0.8 0.1 1.2
v -0.8 0.1 1.1
v -0.8 0.1 0.8
v -0.8 0.1 0.7
v -0.8 0.1 0.3
v -0.8 0.1 0.2
v -0.8 1.1 1.7
v -0.8 1.1 1.6
v -0.8 1.1 0.3
v -0.8 1.1 0.2
v -0.8 1.8 1.7
v -0.8 1.8 1.6
v -0.8 1.8 0.3
v -0.8 1.8 0.2
v -0.7 0 1.1
v -0.7 0 0.8
v -0.7 0.1 1.1
v -0.7 0.1 0.8
v -0.6 0.1 1.6
v -0.6 0.1 1.5
v -0.6 0.1 0.4
v -0.6 0.1 0.3
v -0.6 1.1 1.6
v -0.6 1.1 1.5
v -0.6 1.1 0.4
v -0.6 1.1 0.3
v -0.6 1.8 1.6
v -0.6 1.8 1.5
v -0.6 1.8 0.4
v -0.6 1.8 0.3
v -0.5 0.1 1.5
v -0.5 0.1 1.4
v -0.5 0.1 0.5
v -0.5 0.1 0.4
v -0.5 1.1 1.5
v -0.5 1.1 1.4
v -0.5 1.1 0.5
v -0.5 1.1 0.4
v -0.5 1.8 1.5
v -0.5 1.8 1.4
v -0.5 1.8 0.5
v -0.5 1.8 0.4
v -0.4 0.1 1.4
v -0.4 0.1 1.2
v -0.4 0.1 0.7
v -0.4 0.1 0.5
v -0.4 1.1 1.4
v -0.4 1.1 1.2
v -0.4 1.1 0.7
v -0.4 1.1 0.5
v -0.4 1.8 1.4
v -0.4 1.8 1.2
v -0.4 1.8 0.7
v -0.4 1.8 0.5
v -0.3 0.1 1.2
v -0.3 0.1 0.7
v -0.3 1.1 1.2
v -0.3 1.1 0.7
v -0.3 1.8 1.2
v -0.3 1.8 0.7
v -1.3 0.1 1.7
v -1.3 1.1 1.7
v -1.3 1.8 1.7
v -0.8 0.1 1.7
v -0.8 1.1 1.7
v -0.8 1.8 1.7
v -1.5 0.1 1.6
v -1.5 1.1 1.6
v -1.5 1.8 1.6
v -1.3 0.1 1.6
v -1.3 1.1 1.6
v -1.3 1.8 1.6
v -0.8 0.1 1.6
v -0.8 1.1 1.6
v -0.8 1.8 1.6
v -0.6 0.1 1.6
v -0.6 1.1 1.6
v -0.6 1.8 1.6
v -1.6 0.1 1.5
v -1.6 1.1 1.5
v -1.6 1.8 1.5
v -1.5 0.1 1.5
v -1.5 1.1 1.5
v -1.5 1.8 1.5
v -0.6 0.1 1.5
v -0.6 1.1 1.5
v -0.6 1.8 1.5
v -0.5 0.1 1.5
v -0.5 1.1 1.5
v -0.5 1.8 1.5
v -1.7 0.1 1.4
v -1.7 1.1 1.4
v -1.7 1.8 1.4
v -1.6 0.1 1.4
v -1.6 1.1 1.4
v -1.6 1.8 1.4
v -0.5 0.1 1.4
v -0.5 1.1 1.4
v -0.5 1.8 1.4
v -0.4 0.1 1.4
v -0.4 1.1 1.4
v -0.4 1.8 1.4
v -1.2 0 1.3
v -1.2 0.1 1.3
v -0.9 0 1.3
v -0.9 0.1 1.3
v -1.8 0.1 1.2
v -1.8 1.1 1.2
v -1.8 1.8 1.2
v -1.7 0.1 1.2
v -1.7 1.1 1.2
v -1.7 1.8 1.2
v -1.3 0 1.2
v -1.3 0.1 1.2
v -1.2 0 1.2
v -1.2 0.1 1.2
v -0.9 0 1.2
v -0.9 0.1 1.2
v -0.8 0 1.2
v -0.8 0.1 1.2
v -0.4 0.1 1.2
v -0.4 1.1 1.2
v -0.4 1.8 1.2
v -0.3 0.1 1.2
v -0.3 1.1 1.2
v -0.3 1.8 1.2
v -1.4 0 1.1
v -1.4 0.1 1.1
v -1.3 0 1.1
v -1.3 0.1 1.1
v -0.8 0 1.1
v -0.8 0.1 1.1
v -0.7 0 1.1
v -0.7 0.1 1.1
v -1.7 1.7 1
v -1.7 1.8 1
v -1.6 1.7 1
v -1.6 1.8 1
v -1.4 1.6 0.7
v -1.4 1.7 0.7
v -1.3 1.6 0.7
v -1.3 1.7 0.7
v -0.6 1.6 0.7
v -0.6 1.7 0.7
v -0.5 1.6 0.7
v -0.5 1.7 0.7
v -0.5 1.8 0.7
v -0.4 1.7 0.7
v -0.4 1.8 0.7
v -1.6 1.7 0.6
v -1.6 1.8 0.6
v -1.5 1.7 0.6
v -1.5 1.8 0.6
v -1.3 1.6 0.6
v -1.3 1.7 0.6
v -1.2 1.6 0.6
v -1.2 1.7 0.6
v -0.7 1.6 0.6
v -0.7 1.7 0.6
v -0.6 1.6 0.6
v -0.6 1.7 0.6
v -0.6 1.8 0.6
v -0.5 1.7 0.6
v -0.5 1.8 0.6
v -1.5 1.7 0.5
v -1.5 1.8 0.5
v -1.4 1.7 0.5
v -1.4 1.8 0.5
v -1.2 1.6 0.5
v -1.2 1.7 0.5
v -0.7 1.6 0.5
v -0.7 1.7 0.5
v -1.4 1.7 0.4
v -1.4 1.8 0.4
v -0.6 1.7 0.4
v -0.6 1.8 0.4
v -1.1 1.7 1.6
v -1.1 1.8 1.6
v -1 1.7 1.6
v -1 1.8 1.6
v -1.4 1.7 1.5
v -1.4 1.8 1.5
v -1.1 1.7 1.5
v -1.1 1.8 1.5
v -1 1.7 1.5
v -1 1.8 1.5
v -0.7 1.7 1.5
v -0.7 1.8 1.5
v -1.6 1.7 1.4
v -1.6 1.8 1.4
v -1.4 1.7 1.4
v -1.4 1.8 1.4
v -1.2 1.6 1.4
v -1.2 1.7 1.4
v -0.7 1.6 1.4
v -0.7 1.7 1.4
v -0.7 1.8 1.4
v -0.6 1.7 1.4
v -0.6 1.8 1.4
v -1.3 1.6 1.3
v -1.3 1.7 1.3
v -1.2 1.6 1.3
v -1.2 1.7 1.3
v -0.7 1.6 1.3
v -0.7 1.7 1.3
v -0.6 1.6 1.3
v -0.6 1.7 1.3
v -0.6 1.8 1.3
v -0.5 1.7 1.3
v -0.5 1.8 1.3
v -1.4 1.6 1.2
v -1.4 1.7 1.2
v -1.3 1.6 1.2
v -1.3 1.7 1.2
v -0.6 1.6 1.2
v -0.6 1.7 1.2
v -0.5 1.6 1.2
v -0.5 1.7 1.2
v -1.7 1.7 1.1
v -1.7 1.8 1.1
v -1.6 1.7 1.1
v -1.6 1.8 1.1
v -0.5 1.7 1
v -0.5 1.8 1
v -0.4 1.7 1
v -0.4 1.8 1
v -1.4 0 0.8
v -1.4 0.1 0.8
v -1.3 0 0.8
v -1.3 0.1 0.8
v -0.8 0 0.8
v -0.8 0.1 0.8
v -0.7 0 0.8
v -0.7 0.1 0.8
v -1.8 0.1 0.7
v -1.8 1.1 0.7
v -1.8 1.8 0.7
v -1.7 0.1 0.7
v -1.7 1.1 0.7
v -1.7 1.8 0.7
v -1.3 0 0.7
v -1.3 0.1 0.7
v -1.2 0 0.7
v -1.2 0.1 0.7
v -0.9 0 0.7
v -0.9 0.1 0.7
v -0.8 0 0.7
v -0.8 0.1 0.7
v -0.4 0.1 0.7
v -0.4 1.1 0.7
v -0.4 1.8 0.7
v -0.3 0.1 0.7
v -0.3 1.1 0.7
v -0.3 1.8 0.7
v -1.2 0 0.6
v -1.2 0.1 0.6
v -0.9 0 0.6
v -0.9 0.1 0.6
v -1.7 0.1 0.5
v -1.7 1.1 0.5
v -1.7 1.8 0.5
v -1.6 0.1 0.5
v -1.6 1.1 0.5
v -1.6 1.8 0.5
v -0.5 0.1 0.5
v -0.5 1.1 0.5
v -0.5 1.8 0.5
v -0.4 0.1 0.5
v -0.4 1.1 0.5
v -0.4 1.8 0.5
v -1.6 0.1 0.4
v -1.6 1.1 0.4
v -1.6 1.8 0.4
v -1.5 0.1 0.4
v -1.5 1.1 0.4
v -1.5 1.8 0.4
v -0.6 0.1 0.4
v -0.6 1.1 0.4
v -0.6 1.8 0.4
v -0.5 0.1 0.4
v -0.5 1.1 0.4
v -0.5 1.8 0.4
v -1.5 0.1 0.3
v -1.5 1.1 0.3
v -1.5 1.8 0.3
v -1.3 0.1 0.3
v -1.3 1.1 0.3
v -1.3 1.8 0.3
v -0.8 0.1 0.3
v -0.8 1.1 0.3
v -0.8 1.8 0.3
v -0.6 0.1 0.3
v -0.6 1.1 0.3
v -0.6 1.8 0.3
v -1.3 0.1 0.2
v -1.3 1.1 0.2
v -1.3 1.8 0.2
v -0.8 0.1 0.2
v -0.8 1.1 0.2
v -0.8 1.8 0.2
v -1.2 0 1.3
v -0.9 0 1.3
v -1.3 0 1.2
v -1.2 0 1.2
v -0.9 0 1.2
v -0.8 0 1.2
v -1.4 0 1.1
v -1.3 0 1.1
v -0.8 0 1.1
v -0.7 0 1.1
v -1.4 0 0.8
v -1.3 0 0.8
v -0.8 0 0.8
v -0.7 0 0.8
v -1.3 0 0.7
v -1.2 0 0.7
v -0.9 0 0.7
v -0.8 0 0.7
v -1.2 0 0.6
v -0.9 0 0.6
v -1.3 0.1 1.7
v -0.8 0.1 1.7
v -1.5 0.1 1.6
v -1.3 0.1 1.6
v -0.8 0.1 1.6
v -0.6 0.1 1.6
v -1.6 0.1 1.5
v -1.5 0.1 1.5
v -0.6 0.1 1.5
v -0.5 0.1 1.5
v -1.7 0.1 1.4
v -1.6 0.1 1.4
v -0.5 0.1 1.4
v -0.4 0.1 1.4
v -1.2 0.1 1.3
v -0.9 0.1 1.3
v -1.8 0.1 1.2
v -1.7 0.1 1.2
v -1.3 0.1 1.2
v -1.2 0.1 1.2
v -0.9 0.1 1.2
v -0.8 0.1 1.2
v -0.4 0.1 1.2
v -0.3 0.1 1.2
v -1.4 0.1 1.1
v -1.3 0.1 1.1
v -0.8 0.1 1.1
v -0.7 0.1 1.1
v -1.4 0.1 0.8
v -1.3 0.1 0.8
v -0.8 0.1 0.8
v -0.7 0.1 0.8
v -1.8 0.1 0.7
v -1.7 0.1 0.7
v -1.3 0.1 0.7
v -1.2 0.1 0.7
v -0.9 0.1 0.7
v -0.8 0.1 0.7
v -0.4 0.1 0.7
v -0.3 0.1 0.7
v -1.2 0.1 0.6
v -0.9 0.1 0.6
v -1.7 0.1 0.5
v -1.6 0.1 0.5
v -0.5 0.1 0.5
v -0.4 0.1 0.5
v -1.6 0.1 0.4
v -1.5 0.1 0.4
v -0.6 0.1 0.4
v -0.5 0.1 0.4
v -1.5 0.1 0.3
v -1.3 0.1 0.3
v -0.8 0.1 0.3
v -0.6 0.1 0.3
v -1.3 0.1 0.2
v -0.8 0.1 0.2
v -1.2 1.6 1.4
v -0.7 1.6 1.4
v -1.3 1.6 1.3
v -1.2 1.6 1.3
v -0.7 1.6 1.3
v -0.6 1.6 1.3
v -1.4 1.6 1.2
v -1.3 1.6 1.2
v -0.6 1.6 1.2
v -0.5 1.6 1.2
v -1.4 1.6 0.7
v -1.3 1.6 0.7
v -0.6 1.6 0.7
v -0.5 1.6 0.7
v -1.3 1.6 0.6
v -1.2 1.6 0.6
v -0.7 1.6 0.6
v -0.6 1.6 0.6
v -1.2 1.6 0.5
v -0.7 1.6 0.5
v -1.1 1.7 1.6
v -1 1.7 1.6
v -1.4 1.7 1.5
v -1.1 1.7 1.5
v -1 1.7 1.5
v -0.7 1.7 1.5
v -1.6 1.7 1.4
v -1.4 1.7 1.4
v -1.2 1.7 1.4
v -0.7 1.7 1.4
v -0.6 1.7 1.4
v -1.3 1.7 1.3
v -1.2 1.7 1.3
v -0.7 1.7 1.3
v -0.6 1.7 1.3
v -0.5 1.7 1.3
v -1.4 1.7 1.2
v -1.3 1.7 1.2
v -0.6 1.7 1.2
v -0.5 1.7 1.2
v -1.7 1.7 1.1
v -1.6 1.7 1.1
v -1.7 1.7 1
v -1.6 1.7 1
v -0.5 1.7 1
v -0.4 1.7 1
v -1.4 1.7 0.7
v -1.3 1.7 0.7
v -0.6 1.7 0.7
v -0.5 1.7 0.7
v -0.4 1.7 0.7
v -1.6 1.7 0.6
v -1.5 1.7 0.6
v -1.3 1.7 0.6
v -1.2 1.7 0.6
v -0.7 1.7 0.6
v -0.6 1.7 0.6
v -0.5 1.7 0.6
v -1.5 1.7 0.5
v -1.4 1.7 0.5
v -1.2 1.7 0.5
v -0.7 1.7 0.5
v -1.4 1.7 0.4
v -0.6 1.7 0.4
v -1.3 1.8 1.7
v -0.8 1.8 1.7
v -1.5 1.8 1.6
v -1.3 1.8 1.6
v -1.1 1.8 1.6
v -1 1.8 1.6
v -0.8 1.8 1.6
v -0.6 1.8 1.6
v -1.6 1.8 1.5
v -1.5 1.8 1.5
v -1.4 1.8 1.5
v -1.1 1.8 1.5
v -1 1.8 1.5
v -0.7 1.8 1.5
v -0.6 1.8 1.5
v -0.5 1.8 1.5
v -1.7 1.8 1.4
v -1.6 1.8 1.4
v -1.4 1.8 1.4
v -0.7 1.8 1.4
v -0.6 1.8 1.4
v -0.5 1.8 1.4
v -0.4 1.8 1.4
v -0.6 1.8 1.3
v -0.5 1.8 1.3
v -1.8 1.8 1.2
v -1.7 1.8 1.2
v -0.4 1.8 1.2
v -0.3 1.8 1.2
v -1.7 1.8 1.1
v -1.6 1.8 1.1
v -1.7 1.8 1
v -1.6 1.8 1
v -0.5 1.8 1
v -0.4 1.8 1
v -1.8 1.8 0.7
v -1.7 1.8 0.7
v -0.5 1.8 0.7
v -0.4 1.8 0.7
v -0.3 1.8 0.7
v -1.6 1.8 0.6
v -1.5 1.8 0.6
v -0.6 1.8 0.6
v -0.5 1.8 0.6
v -1.7 1.8 0.5
v -1.6 1.8 0.5
v -1.5 1.8 0.5
v -1.4 1.8 0.5
v -0.5 1.8 0.5
v -0.4 1.8 0.5
v -1.6 1.8 0.4
v -1.5 1.8 0.4
v -1.4 1.8 0.4
v -0.6 1.8 0.4
v -0.5 1.8 0.4
v -1.5 1.8 0.3
v -1.3 1.8 0.3
v -0.8 1.8 0.3
v -0.6 1.8 0.3
v -1.3 1.8 0.2
v -0.8 1.8 0.2

# faces
f 3/1/1 2/1/1 1/1/1
f 4/1/1 2/1/1 3/1/1
f 5/2/1 4/2/1 3/2/1
f 6/2/1 4/2/1 5/2/1
f 11/1/1 8/1/1 7/1/1
f 12/1/1 8/1/1 11/1/1
f 13/1/1 10/1/1 9/1/1
f 14/1/1 10/1/1 13/1/1
f 15/2/1 12/2/1 11/2/1
f 16/2/1 12/2/1 15/2/1
f 17/2/1 14/2/1 13/2/1
f 18/2/1 14/2/1 17/2/1
f 23/1/1 20/1/1 19/1/1
f 24/1/1 20/1/1 23/1/1
f 25/1/1 22/1/1 21/1/1
f 26/1/1 22/1/1 25/1/1
f 27/2/1 24/2/1 23/2/1
f 28/2/1 24/2/1 27/2/1
f 29/2/1 26/2/1 25/2/1
f 30/2/1 26/2/1 29/2/1
f 35/1/1 32/1/1 31/1/1
f 36/1/1 32/1/1 35/1/1
f 37/1/1 34/1/1 33/1/1
f 38/1/1 34/1/1 37/1/1
f 39/2/1 36/2/1 35/2/1
f 40/2/1 36/2/1 39/2/1
f 41/2/1 38/2/1 37/2/1
f 42/2/1 38/2/1 41/2/1
f 45/1/1 44/1/1 43/1/1
f 46/1/1 44/1/1 45/1/1
f 53/1/1 48/1/1 47/1/1
f 54/1/1 48/1/1 53/1/1
f 55/1/1 50/1/1 49/1/1
f 56/1/1 50/1/1 55/1/1
f 59/1/1 52/1/1 51/1/1
f 60/1/1 52/1/1 59/1/1
f 61/1/1 58/1/1 57/1/1
f 62/1/1 58/1/1 61/1/1
f 63/2/1 60/2/1 59/2/1
f 64/2/1 60/2/1 63/2/1
f 65/2/1 62/2/1 61/2/1
f 66/2/1 62/2/1 65/2/1
f 71/1/1 68/1/1 67/1/1
f 72/1/1 68/1/1 71/1/1
f 73/1/1 70/1/1 69/1/1
f 74/1/1 70/1/1 73/1/1
f 77/2/1 76/2/1 75/2/1
f 78/2/1 76/2/1 77/2/1
f 84/2/1 80/2/1 79/2/1
f 85/2/1 80/2/1 84/2/1
f 86/2/1 82/2/1 81/2/1
f 87/2/1 82/2/1 86/2/1
f 88/2/1 84/2/1 83/2/1
f 89/2/1 84/2/1 88/2/1
f 95/2/1 91/2/1 90/2/1
f 96/2/1 91/2/1 95/2/1
f 97/2/1 93/2/1 92/2/1
f 98/2/1 93/2/1 97/2/1
f 100/2/1 95/2/1 94/2/1
f 101/2/1 95/2/1 100/2/1
f 102/2/1 99/2/1 98/2/1
f 103/2/1 99/2/1 102/2/1
f 107/2/1 105/2/1 104/2/1
f 108/2/1 105/2/1 107/2/1
f 109/2/1 105/2/1 108/2/1
f 111/2/1 107/2/1 106/2/1
f 111/2/1 108/2/1 107/2/1
f 112/2/1 108/2/1 111/2/1
f 113/2/1 110/2/1 109/2/1
f 114/2/1 110/2/1 113/2/1
f 117/2/1 116/2/1 115/2/1
f 118/2/1 116/2/1 117/2/1
f 119/2/2 120/2/2 121/2/2
f 121/2/2 120/2/2 122/2/2
f 123/2/2 124/2/2 127/2/2
f 127/2/2 124/2/2 128/2/2
f 125/2/2 126/2/2 129/2/2
f 129/2/2 126/2/2 130/2/2
f 131/2/2 132/2/2 133/2/2
f 133/2/2 132/2/2 134/2/2
f 135/2/2 136/2/2 139/2/2
f 139/2/2 136/2/2 140/2/2
f 137/2/2 138/2/2 143/2/2
f 143/2/2 138/2/2 144/2/2
f 141/2/2 142/2/2 145/2/2
f 145/2/2 142/2/2 146/2/2
f 147/2/2 148/2/2 151/2/2
f 151/2/2 148/2/2 152/2/2
f 149/2/2 150/2/2 153/2/2
f 153/2/2 150/2/2 154/2/2
f 155/2/2 156/2/2 159/2/2
f 159/2/2 156/2/2 160/2/2
f 157/2/2 158/2/2 161/2/2
f 161/2/2 158/2/2 162/2/2
f 163/2/2 164/2/2 165/2/2
f 165/2/2 164/2/2 166/2/2
f 167/1/2 168/1/2 171/1/2
f 171/1/2 168/1/2 172/1/2
f 169/1/2 170/1/2 173/1/2
f 173/1/2 170/1/2 174/1/2
f 175/1/2 176/1/2 181/1/2
f 181/1/2 176/1/2 182/1/2
f 177/1/2 178/1/2 183/1/2
f 183/1/2 178/1/2 184/1/2
f 179/1/2 180/1/2 187/1/2
f 187/1/2 180/1/2 188/1/2
f 185/1/2 186/1/2 189/1/2
f 189/1/2 186/1/2 190/1/2
f 187/2/2 188/2/2 191/2/2
f 191/2/2 188/2/2 192/2/2
f 189/2/2 190/2/2 193/2/2
f 193/2/2 190/2/2 194/2/2
f 195/1/2 196/1/2 197/1/2
f 197/1/2 196/1/2 198/1/2
f 199/1/2 200/1/2 203/1/2
f 203/1/2 200/1/2 204/1/2
f 201/1/2 202/1/2 205/1/2
f 205/1/2 202/1/2 206/1/2
f 203/2/2 204/2/2 207/2/2
f 207/2/2 204/2/2 208/2/2
f 205/2/2 206/2/2 209/2/2
f 209/2/2 206/2/2 210/2/2
f 211/1/2 212/1/2 215/1/2
f 215/1/2 212/1/2 216/1/2
f 213/1/2 214/1/2 217/1/2
f 217/1/2 214/1/2 218/1/2
f 215/2/2 216/2/2 219/2/2
f 219/2/2 216/2/2 220/2/2
f 217/2/2 218/2/2 221/2/2
f 221/2/2 218/2/2 222/2/2
f 223/1/2 224/1/2 227/1/2
f 227/1/2 224/1/2 228/1/2
f 225/1/2 226/1/2 229/1/2
f 229/1/2 226/1/2 230/1/2
f 227/2/2 228/2/2 231/2/2
f 231/2/2 228/2/2 232/2/2
f 229/2/2 230/2/2 233/2/2
f 233/2/2 230/2/2 234/2/2
f 235/1/2 236/1/2 237/1/2
f 237/1/2 236/1/2 238/1/2
f 237/2/2 238/2/2 239/2/2
f 239/2/2 238/2/2 240/2/2
f 244/1/3 242/1/3 241/1/3
f 245/2/3 243/2/3 242/2/3
f 245/1/3 242/1/3 244/1/3
f 246/2/3 243/2/3 245/2/3
f 250/1/3 248/1/3 247/1/3
f 251/2/3 249/2/3 248/2/3
f 251/1/3 248/1/3 250/1/3
f 252/2/3 249/2/3 251/2/3
f 256/1/3 254/1/3 253/1/3
f 257/2/3 255/2/3 254/2/3
f 257/1/3 254/1/3 256/1/3
f 258/2/3 255/2/3 257/2/3
f 262/1/3 260/1/3 259/1/3
f 263/2/3 261/2/3 260/2/3
f 263/1/3 260/1/3 262/1/3
f 264/2/3 261/2/3 263/2/3
f 268/1/3 266/1/3 265/1/3
f 269/2/3 267/2/3 266/2/3
f 269/1/3 266/1/3 268/1/3
f 270/2/3 267/2/3 269/2/3
f 274/1/3 272/1/3 271/1/3
f 275/2/3 273/2/3 272/2/3
f 275/1/3 272/1/3 274/1/3
f 276/2/3 273/2/3 275/2/3
f 280/1/3 278/1/3 277/1/3
f 281/2/3 279/2/3 278/2/3
f 281/1/3 278/1/3 280/1/3
f 282/2/3 279/2/3 281/2/3
f 285/1/3 284/1/3 283/1/3
f 286/1/3 284/1/3 285/1/3
f 290/1/3 288/1/3 287/1/3
f 291/2/3 289/2/3 288/2/3
f 291/1/3 288/1/3 290/1/3
f 292/2/3 289/2/3 291/2/3
f 295/1/3 294/1/3 293/1/3
f 296/1/3 294/1/3 295/1/3
f 299/1/3 298/1/3 297/1/3
f 300/1/3 298/1/3 299/1/3
f 304/1/3 302/1/3 301/1/3
f 305/2/3 303/2/3 302/2/3
f 305/1/3 302/1/3 304/1/3
f 306/2/3 303/2/3 305/2/3
f 309/1/3 308/1/3 307/1/3
f 310/1/3 308/1/3 309/1/3
f 313/1/3 312/1/3 311/1/3
f 314/1/3 312/1/3 313/1/3
f 317/2/3 316/2/3 315/2/3
f 318/2/3 316/2/3 317/2/3
f 321/2/3 320/2/3 319/2/3
f 322/2/3 320/2/3 321/2/3
f 325/2/3 324/2/3 323/2/3
f 326/2/3 324/2/3 325/2/3
f 328/2/3 327/2/3 326/2/3
f 329/2/3 327/2/3 328/2/3
f 332/2/3 331/2/3 330/2/3
f 333/2/3 331/2/3 332/2/3
f 336/2/3 335/2/3 334/2/3
f 337/2/3 335/2/3 336/2/3
f 340/2/3 339/2/3 338/2/3
f 341/2/3 339/2/3 340/2/3
f 343/2/3 342/2/3 341/2/3
f 344/2/3 342/2/3 343/2/3
f 347/2/3 346/2/3 345/2/3
f 348/2/3 346/2/3 347/2/3
f 351/2/3 350/2/3 349/2/3
f 352/2/3 350/2/3 351/2/3
f 355/2/3 354/2/3 353/2/3
f 356/2/3 354/2/3 355/2/3
f 357/2/4 358/2/4 359/2/4
f 359/2/4 358/2/4 360/2/4
f 361/2/4 362/2/4 363/2/4
f 363/2/4 362/2/4 364/2/4
f 365/2/4 366/2/4 367/2/4
f 367/2/4 366/2/4 368/2/4
f 369/2/4 370/2/4 371/2/4
f 371/2/4 370/2/4 372/2/4
f 373/2/4 374/2/4 375/2/4
f 375/2/4 374/2/4 376/2/4
f 376/2/4 377/2/4 378/2/4
f 378/2/4 377/2/4 379/2/4
f 380/2/4 381/2/4 382/2/4
f 382/2/4 381/2/4 383/2/4
f 384/2/4 385/2/4 386/2/4
f 386/2/4 385/2/4 387/2/4
f 387/2/4 388/2/4 389/2/4
f 389/2/4 388/2/4 390/2/4
f 391/2/4 392/2/4 393/2/4
f 393/2/4 392/2/4 394/2/4
f 395/2/4 396/2/4 397/2/4
f 397/2/4 396/2/4 398/2/4
f 399/2/4 400/2/4 401/2/4
f 401/2/4 400/2/4 402/2/4
f 403/2/4 404/2/4 405/2/4
f 405/2/4 404/2/4 406/2/4
f 407/1/4 408/1/4 409/1/4
f 409/1/4 408/1/4 410/1/4
f 411/1/4 412/1/4 413/1/4
f 413/1/4 412/1/4 414/1/4
f 415/1/4 416/1/4 418/1/4
f 416/2/4 417/2/4 419/2/4
f 418/1/4 416/1/4 419/1/4
f 419/2/4 417/2/4 420/2/4
f 421/1/4 422/1/4 423/1/4
f 423/1/4 422/1/4 424/1/4
f 425/1/4 426/1/4 427/1/4
f 427/1/4 426/1/4 428/1/4
f 429/1/4 430/1/4 432/1/4
f 430/2/4 431/2/4 433/2/4
f 432/1/4 430/1/4 433/1/4
f 433/2/4 431/2/4 434/2/4
f 435/1/4 436/1/4 437/1/4
f 437/1/4 436/1/4 438/1/4
f 439/1/4 440/1/4 442/1/4
f 440/2/4 441/2/4 443/2/4
f 442/1/4 440/1/4 443/1/4
f 443/2/4 441/2/4 444/2/4
f 445/1/4 446/1/4 448/1/4
f 446/2/4 447/2/4 449/2/4
f 448/1/4 446/1/4 449/1/4
f 449/2/4 447/2/4 450/2/4
f 451/1/4 452/1/4 454/1/4
f 452/2/4 453/2/4 455/2/4
f 454/1/4 452/1/4 455/1/4
f 455/2/4 453/2/4 456/2/4
f 457/1/4 458/1/4 460/1/4
f 458/2/4 459/2/4 461/2/4
f 460/1/4 458/1/4 461/1/4
f 461/2/4 459/2/4 462/2/4
f 463/1/4 464/1/4 466/1/4
f 464/2/4 465/2/4 467/2/4
f 466/1/4 464/1/4 467/1/4
f 467/2/4 465/2/4 468/2/4
f 469/1/4 470/1/4 472/1/4
f 470/2/4 471/2/4 473/2/4
f 472/1/4 470/1/4 473/1/4
f 473/2/4 471/2/4 474/2/4
f 475/1/4 476/1/4 478/1/4
f 476/2/4 477/2/4 479/2/4
f 478/1/4 476/1/4 479/1/4
f 479/2/4 477/2/4 480/2/4
f 484/1/5 482/1/5 481/1/5
f 485/1/5 482/1/5 484/1/5
f 488/1/5 484/1/5 483/1/5
f 488/1/5 486/1/5 485/1/5
f 488/1/5 485/1/5 484/1/5
f 489/1/5 486/1/5 488/1/5
f 491/1/5 488/1/5 487/1/5
f 491/1/5 490/1/5 489/1/5
f 491/1/5 489/1/5 488/1/5
f 492/1/5 490/1/5 491/1/5
f 493/1/5 490/1/5 492/1/5
f 494/1/5 490/1/5 493/1/5
f 495/1/5 493/1/5 492/1/5
f 496/1/5 493/1/5 495/1/5
f 497/1/5 493/1/5 496/1/5
f 498/1/5 493/1/5 497/1/5
f 499/1/5 497/1/5 496/1/5
f 500/1/5 497/1/5 499/1/5
f 504/1/5 502/1/5 501/1/5
f 505/1/5 502/1/5 504/1/5
f 508/1/5 504/1/5 503/1/5
f 508/1/5 506/1/5 505/1/5
f 508/1/5 505/1/5 504/1/5
f 509/1/5 506/1/5 508/1/5
f 512/1/5 508/1/5 507/1/5
f 512/1/5 510/1/5 509/1/5
f 512/1/5 509/1/5 508/1/5
f 513/1/5 510/1/5 512/1/5
f 515/1/5 512/1/5 511/1/5
f 515/1/5 514/1/5 513/1/5
f 515/1/5 513/1/5 512/1/5
f 516/1/5 514/1/5 515/1/5
f 518/1/5 515/1/5 511/1/5
f 519/1/5 515/1/5 518/1/5
f 520/1/5 515/1/5 519/1/5
f 521/1/5 514/1/5 516/1/5
f 522/1/5 514/1/5 521/1/5
f 523/1/5 514/1/5 522/1/5
f 525/1/5 518/1/5 517/1/5
f 525/1/5 519/1/5 518/1/5
f 526/1/5 519/1/5 525/1/5
f 527/1/5 524/1/5 523/1/5
f 527/1/5 523/1/5 522/1/5
f 528/1/5 524/1/5 527/1/5
f 529/1/5 525/1/5 517/1/5
f 532/1/5 524/1/5 528/1/5
f 533/1/5 530/1/5 529/1/5
f 533/1/5 529/1/5 517/1/5
f 534/1/5 530/1/5 533/1/5
f 535/1/5 530/1/5 534/1/5
f 538/1/5 532/1/5 531/1/5
f 539/1/5 524/1/5 532/1/5
f 539/1/5 532/1/5 538/1/5
f 540/1/5 524/1/5 539/1/5
f 541/1/5 536/1/5 535/1/5
f 541/1/5 535/1/5 534/1/5
f 542/1/5 538/1/5 537/1/5
f 542/1/5 539/1/5 538/1/5
f 543/1/5 541/1/5 534/1/5
f 543/1/5 542/1/5 541/1/5
f 544/1/5 542/1/5 543/1/5
f 545/1/5 539/1/5 542/1/5
f 545/1/5 542/1/5 544/1/5
f 546/1/5 539/1/5 545/1/5
f 547/1/5 545/1/5 544/1/5
f 548/1/5 545/1/5 547/1/5
f 549/1/5 545/1/5 548/1/5
f 550/1/5 545/1/5 549/1/5
f 551/1/5 549/1/5 548/1/5
f 552/1/5 549/1/5 551/1/5
f 553/1/5 549/1/5 552/1/5
f 554/1/5 549/1/5 553/1/5
f 555/1/5 553/1/5 552/1/5
f 556/1/5 553/1/5 555/1/5
f 557/2/6 558/2/6 560/2/6
f 560/2/6 558/2/6 561/2/6
f 559/2/6 560/2/6 564/2/6
f 561/2/6 562/2/6 564/2/6
f 560/2/6 561/2/6 564/2/6
f 564/2/6 562/2/6 565/2/6
f 563/2/6 564/2/6 567/2/6
f 565/2/6 566/2/6 567/2/6
f 564/2/6 565/2/6 567/2/6
f 567/2/6 566/2/6 568/2/6
f 568/2/6 566/2/6 569/2/6
f 569/2/6 566/2/6 570/2/6
f 568/2/6 569/2/6 571/2/6
f 571/2/6 569/2/6 572/2/6
f 572/2/6 569/2/6 573/2/6
f 573/2/6 569/2/6 574/2/6
f 572/2/6 573/2/6 575/2/6
f 575/2/6 573/2/6 576/2/6
f 577/2/6 578/2/6 580/2/6
f 580/2/6 578/2/6 581/2/6
f 579/2/6 580/2/6 584/2/6
f 581/2/6 582/2/6 584/2/6
f 580/2/6 581/2/6 584/2/6
f 584/2/6 582/2/6 585/2/6
f 585/2/6 582/2/6 586/2/6
f 583/2/6 584/2/6 588/2/6
f 584/2/6 585/2/6 588/2/6
f 588/2/6 585/2/6 589/2/6
f 586/2/6 587/2/6 590/2/6
f 590/2/6 587/2/6 591/2/6
f 583/2/6 588/2/6 593/2/6
f 593/2/6 588/2/6 594/2/6
f 591/2/6 592/2/6 595/2/6
f 595/2/6 592/2/6 596/2/6
f 583/2/6 593/2/6 598/2/6
f 597/2/6 598/2/6 599/2/6
f 598/2/6 593/2/6 600/2/6
f 599/2/6 598/2/6 600/2/6
f 600/2/6 593/2/6 603/2/6
f 601/2/6 602/2/6 606/2/6
f 606/2/6 602/2/6 607/2/6
f 603/2/6 604/2/6 608/2/6
f 600/2/6 603/2/6 608/2/6
f 608/2/6 604/2/6 609/2/6
f 609/2/6 604/2/6 610/2/6
f 605/2/6 606/2/6 613/2/6
f 613/2/6 606/2/6 614/2/6
f 610/2/6 611/2/6 615/2/6
f 609/2/6 610/2/6 615/2/6
f 615/2/6 611/2/6 616/2/6
f 616/2/6 611/2/6 617/2/6
f 612/2/6 613/2/6 618/2/6
f 616/2/6 617/2/6 619/2/6
f 617/2/6 618/2/6 619/2/6
f 618/2/6 613/2/6 620/2/6
f 619/2/6 618/2/6 620/2/6
f 621/2/6 622/2/6 624/2/6
f 624/2/6 622/2/6 625/2/6
f 625/2/6 622/2/6 626/2/6
f 626/2/6 622/2/6 627/2/6
f 623/2/6 624/2/6 630/2/6
f 624/2/6 625/2/6 630/2/6
f 630/2/6 625/2/6 631/2/6
f 631/2/6 625/2/6 632/2/6
f 626/2/6 627/2/6 633/2/6
f 627/2/6 628/2/6 633/2/6
f 633/2/6 628/2/6 634/2/6
f 634/2/6 628/2/6 635/2/6
f 630/2/6 631/2/6 638/2/6
f 629/2/6 630/2/6 638/2/6
f 638/2/6 631/2/6 639/2/6
f 635/2/6 636/2/6 640/2/6
f 634/2/6 635/2/6 640/2/6
f 640/2/6 636/2/6 641/2/6
f 641/2/6 636/2/6 642/2/6
f 642/2/6 643/2/6 644/2/6
f 641/2/6 642/2/6 644/2/6
f 644/2/6 643/2/6 645/2/6
f 637/2/6 638/2/6 647/2/6
f 645/2/6 643/2/6 648/2/6
f 646/2/6 647/2/6 650/2/6
f 647/2/6 638/2/6 650/2/6
f 650/2/6 638/2/6 651/2/6
f 646/2/6 650/2/6 652/2/6
f 648/2/6 649/2/6 654/2/6
f 645/2/6 648/2/6 654/2/6
f 654/2/6 649/2/6 655/2/6
f 652/2/6 653/2/6 656/2/6
f 646/2/6 652/2/6 656/2/6
f 656/2/6 653/2/6 657/2/6
f 655/2/6 649/2/6 659/2/6
f 659/2/6 649/2/6 660/2/6
f 657/2/6 653/2/6 661/2/6
f 658/2/6 659/2/6 664/2/6
f 661/2/6 662/2/6 665/2/6
f 657/2/6 661/2/6 665/2/6
f 665/2/6 662/2/6 666/2/6
f 666/2/6 662/2/6 667/2/6
f 663/2/6 664/2/6 669/2/6
f 664/2/6 659/2/6 669/2/6
f 669/2/6 659/2/6 670/2/6
f 667/2/6 668/2/6 671/2/6
f 666/2/6 667/2/6 671/2/6
f 671/2/6 668/2/6 672/2/6
f 672/2/6 668/2/6 673/2/6
f 663/2/6 669/2/6 674/2/6
f 674/2/6 669/2/6 675/2/6
f 672/2/6 673/2/6 676/2/6
f 673/2/6 674/2/6 676/2/6
f 676/2/6 674/2/6 677/2/6
f 677/2/6 674/2/6 678/2/6
f 678/2/6 674/2/6 679/2/6
f 677/2/6 678/2/6 680/2/6
f 680/2/6 678/2/6 681/2/6
